# xmcd CD database file
#
# Track frame offsets:
#	150
#	22143
#	61468
#	86750
#	104801
#	121302
#	146235
#	163248
#	182523
#	211400
#	235060
#	253705
#	271731
#
# Disc length: 4123 seconds
#
# Revision: 1
# Processed by: cddbd v1.5PL3 Copyright (c) Steve Scherf et al.
# Submitted via: CDex 1.51
#
DISCID=c310190d
DTITLE=加速+1 - 黄道十二宮
DYEAR=2004
DGENRE=Techno
TTITLE0=白羊宮 - （'・д・）ﾉ
TTITLE1=金牛宮 - 89
TTITLE2=双女宮 - 潜伏者
TTITLE3=巨蟹宮 - subwayYAROO
TTITLE4=獅子宮 - ほしゅ
TTITLE5=処女宮 - Re:
TTITLE6=天秤宮 - 厨放送
TTITLE7=天蠍宮 - Coa
TTITLE8=人馬宮 - ﾐ｀-∀-ﾐﾉ
TTITLE9=磨羯宮 - G3
TTITLE10=宝瓶宮 - 神風87
TTITLE11=双魚宮 - Rebirth
TTITLE12=Bonus Track 遣蛇座 - caSioWHSKY
EXTD=YEAR: 2004
EXTT0=
EXTT1=
EXTT2=
EXTT3=
EXTT4=
EXTT5=
EXTT6=
EXTT7=
EXTT8=
EXTT9=
EXTT10=
EXTT11=
EXTT12=
PLAYORDER=
